<?xml version="1.0" encoding="UTF-8"?>
<svg version="1.1" xmlns="http://www.w3.org/2000/svg" width="228" height="221">
<path d="M0 0 C75.24 0 150.48 0 228 0 C228 72.93 228 145.86 228 221 C152.76 221 77.52 221 0 221 C0 148.07 0 75.14 0 0 Z " fill="#FBFCFB" transform="translate(0,0)"/>
<path d="M0 0 C75.24 0 150.48 0 228 0 C228 72.93 228 145.86 228 221 C152.76 221 77.52 221 0 221 C0 148.07 0 75.14 0 0 Z M21 16 C17.89941898 22.20116204 20.03776091 32.05662652 20.90234375 38.74609375 C21.66242026 44.91698505 22.31722328 51.08740846 22.859375 57.28125 C22.93008713 58.08795639 23.00079926 58.89466278 23.07365417 59.72581482 C23.2219044 61.42548876 23.3697044 63.12520202 23.51708984 64.82495117 C25.2407177 84.6213772 27.26939658 104.37908819 29.39038086 124.13647461 C31.36605037 142.56241427 33.16513196 160.99537136 34.70703125 179.46289062 C34.78056824 180.31709595 34.85410522 181.17130127 34.92987061 182.0513916 C35.06397599 183.60946858 35.19344132 185.16795706 35.31671143 186.72692871 C36.0869644 196.00883468 36.0869644 196.00883468 39.49902344 204.53808594 C43.51352799 206.88471355 47.45448225 206.49060942 52.015625 206.390625 C52.98659119 206.38496521 53.95755737 206.37930542 54.95794678 206.37347412 C58.05580169 206.35110311 61.15249533 206.30090473 64.25 206.25 C66.35154578 206.22993597 68.45310972 206.21168503 70.5546875 206.1953125 C75.7035717 206.1512358 80.85158903 206.08220258 86 206 C86 208.97 86 211.94 86 215 C104.15 215 122.3 215 141 215 C141 212.03 141 209.06 141 206 C142.28688721 206.01571045 143.57377441 206.0314209 144.8996582 206.04760742 C149.66863764 206.10185775 154.43758974 206.1363323 159.20678711 206.16479492 C161.27193791 206.17989271 163.3370566 206.20037274 165.40209961 206.22631836 C168.36840739 206.26265795 171.33429171 206.2797163 174.30078125 206.29296875 C175.68841423 206.31619453 175.68841423 206.31619453 177.1040802 206.33988953 C177.96474594 206.34011612 178.82541168 206.34034271 179.7121582 206.34057617 C180.84800102 206.35056892 180.84800102 206.35056892 182.00679016 206.36076355 C184.6124717 205.88914491 185.43669531 205.11805594 187 203 C190.06075596 193.61870626 190.04574254 182.60261458 190.98828125 172.8125 C191.1733198 170.92554397 191.35876386 169.03862767 191.54458618 167.15174866 C192.03750622 162.13535228 192.5249349 157.1184367 193.01127243 152.10139847 C193.51470687 146.91810528 194.02333159 141.73532164 194.53149414 136.55249023 C195.3306419 128.39576767 196.12707346 120.23878525 196.92089844 112.08154297 C197.82058512 102.83649037 198.72467531 93.59188269 199.6328125 84.34765625 C199.86157426 82.0188804 200.09033413 79.69010437 200.3190918 77.36132812 C200.42361664 76.2972876 200.52814148 75.23324707 200.63583374 74.13696289 C200.92565941 71.18317463 201.21463116 68.22930447 201.50317383 65.27539062 C201.6353833 63.92227531 201.6353833 63.92227531 201.77026367 62.54182434 C201.9377738 60.82706264 202.10517816 59.11229061 202.27246094 57.39750671 C202.69263417 53.10056885 203.11965742 48.80441996 203.55541992 44.5090332 C203.64686783 43.60523422 203.73831573 42.70143524 203.83253479 41.77024841 C204.00571364 40.06241675 204.17997431 38.35469427 204.35557556 36.64710999 C206.20264876 25.15488187 206.20264876 25.15488187 202.625 14.8125 C198.50420802 11.96719125 196.33089561 11.86998214 191.30804443 11.85282898 C190.61228153 11.84915229 189.91651862 11.8454756 189.19967198 11.8416875 C186.8567401 11.83063098 184.51385253 11.8268035 182.17089844 11.82299805 C180.49562946 11.81673486 178.82036188 11.81008819 177.14509583 11.80308533 C172.58504431 11.78566165 168.02500329 11.77511974 163.46492672 11.7668798 C160.61686711 11.76173229 157.76881078 11.75565643 154.92075348 11.74936867 C146.01256285 11.73031234 137.10438053 11.71608243 128.19617343 11.7077567 C117.90822418 11.69798316 107.62049002 11.67166245 97.33261657 11.63125581 C89.38435105 11.60110805 81.43614723 11.58628908 73.48782563 11.58297569 C68.73903765 11.58062357 63.99047934 11.57164228 59.24175262 11.54651451 C54.77329169 11.52325233 50.30521193 11.51899303 45.83670616 11.52927589 C44.19762849 11.52977183 42.55853217 11.52343443 40.9195118 11.50971985 C38.67918113 11.49202444 36.44022191 11.49909406 34.19989014 11.51225281 C32.94700573 11.50986445 31.69412132 11.5074761 30.40327072 11.50501537 C26.35021736 12.09450686 24.17225151 13.45672212 21 16 Z " fill="#028061" transform="translate(0,0)"/>
<path d="M0 0 C0 15.18 0 30.36 0 46 C-3.3 47.65 -6.6 49.3 -10 51 C-13.63217506 53.70832866 -16.79818493 56.79818493 -20 60 C-20.66257813 60.66257813 -21.32515625 61.32515625 -22.0078125 62.0078125 C-27.41903669 67.7938401 -31.07629164 74.30516654 -33 82 C-47.85 82 -62.7 82 -78 82 C-76.87380605 72.99044836 -76.87380605 72.99044836 -75.58203125 70.0703125 C-75.30045166 69.42529785 -75.01887207 68.7802832 -74.72875977 68.11572266 C-74.42639404 67.45878418 -74.12402832 66.8018457 -73.8125 66.125 C-73.49788818 65.42810059 -73.18327637 64.73120117 -72.85913086 64.01318359 C-62.58122435 41.65413818 -27.94299194 0 0 0 Z " fill="#EC1A2C" transform="translate(177,37)"/>
<path d="M0 0 C36.63 0 73.26 0 111 0 C108.03524912 2.22356316 105.16840627 4.11151736 101.9753418 5.95507812 C87.44210079 14.36896214 67.66778475 26.66443049 60 42 C40.2 42 20.4 42 0 42 C0 28.14 0 14.28 0 0 Z " fill="#F58220" transform="translate(50,38)"/>
<path d="M0 0 C15.51 0 31.02 0 47 0 C46.67 17.49 46.34 34.98 46 53 C30.16 53 14.32 53 -2 53 C-2.020625 47.51375 -2.04125 42.0275 -2.0625 36.375 C-2.071604 34.67520996 -2.08070801 32.97541992 -2.09008789 31.22412109 C-2.16094701 8.64378806 -2.16094701 8.64378806 0 0 Z " fill="#EC1A2C" transform="translate(92,159)"/>
<path d="M0 0 C2.20214844 1.10083008 2.20214844 1.10083008 4 3 C4.45410156 6.00268555 4.45410156 6.00268555 4.390625 9.63671875 C4.37128906 11.58481445 4.37128906 11.58481445 4.3515625 13.57226562 C4.31814101 14.94402103 4.28428123 16.31576581 4.25 17.6875 C4.22993376 19.07093812 4.21168319 20.45440384 4.1953125 21.83789062 C4.14809207 25.22595649 4.08224069 28.61263241 4 32 C0.7 32 -2.6 32 -6 32 C-6 24.08 -6 16.16 -6 8 C-7.32 8.33 -8.64 8.66 -10 9 C-10.33 16.59 -10.66 24.18 -11 32 C-14.3 32 -17.6 32 -21 32 C-21 21.77 -21 11.54 -21 1 C-17.04 1 -13.08 1 -9 1 C-5.94306678 -0.52846661 -3.37015453 -0.23242445 0 0 Z " fill="#0B8364" transform="translate(176,123)"/>
<path d="M0 0 C2.64 0 5.28 0 8 0 C11.44419134 13.6332574 11.44419134 13.6332574 11 20 C11.66 20 12.32 20 13 20 C13.04898438 19.2265625 13.09796875 18.453125 13.1484375 17.65625 C13.58747623 11.53998633 14.30007536 5.89307209 16 0 C18.31 0 20.62 0 23 0 C22.28226717 6.35492612 21.20684909 12.59588661 20 18.875 C19.82210937 19.82375 19.64421875 20.7725 19.4609375 21.75 C19.28820312 22.65492188 19.11546875 23.55984375 18.9375 24.4921875 C18.78152344 25.31058105 18.62554687 26.12897461 18.46484375 26.97216797 C18 29 18 29 17 31 C12.71 31 8.42 31 4 31 C3.32979735 26.58384325 2.66369147 22.16713576 2 17.75 C1.80921875 16.49574219 1.6184375 15.24148437 1.421875 13.94921875 C1.24140625 12.74394531 1.0609375 11.53867188 0.875 10.296875 C0.70742187 9.18666992 0.53984375 8.07646484 0.3671875 6.93261719 C0 4 0 4 0 0 Z " fill="#037F60" transform="translate(108,124)"/>
<path d="M0 0 C5.94 0 11.88 0 18 0 C18 2.31 18 4.62 18 7 C15.36 7 12.72 7 10 7 C10 8.98 10 10.96 10 13 C12.31 13 14.62 13 17 13 C17 14.65 17 16.3 17 18 C14.69 18 12.38 18 10 18 C10 20.31 10 22.62 10 25 C12.31 25 14.62 25 17 25 C17 26.98 17 28.96 17 31 C11.39 31 5.78 31 0 31 C0 20.77 0 10.54 0 0 Z " fill="#037F5F" transform="translate(88,124)"/>
<path d="M0 0 C5.61 0 11.22 0 17 0 C17 2.31 17 4.62 17 7 C14.69 7 12.38 7 10 7 C10 8.98 10 10.96 10 13 C12.31 13 14.62 13 17 13 C17 14.65 17 16.3 17 18 C14.36 18 11.72 18 9 18 C9.33 19.98 9.66 21.96 10 24 C12.31 24.33 14.62 24.66 17 25 C17 26.98 17 28.96 17 31 C11.39 31 5.78 31 0 31 C0 20.77 0 10.54 0 0 Z " fill="#037E5F" transform="translate(47,124)"/>
<path d="M0 0 C5.61 0 11.22 0 17 0 C17 2.31 17 4.62 17 7 C14.36 7 11.72 7 9 7 C9 8.98 9 10.96 9 13 C11.64 13 14.28 13 17 13 C17 14.65 17 16.3 17 18 C14.36 18 11.72 18 9 18 C9 20.31 9 22.62 9 25 C11.64 25 14.28 25 17 25 C17 26.98 17 28.96 17 31 C11.39 31 5.78 31 0 31 C0 20.77 0 10.54 0 0 Z " fill="#017E5E" transform="translate(134,124)"/>
<path d="M0 0 C3.3 0 6.6 0 10 0 C10 7.92 10 15.84 10 24 C12.64 24 15.28 24 18 24 C18 26.31 18 28.62 18 31 C12.06 31 6.12 31 0 31 C0 20.77 0 10.54 0 0 Z " fill="#0B8264" transform="translate(68,124)"/>
</svg>
